/* XPM */
static const char * RebinningCutter_xpm[] = {
"32 32 182 2",
"  	c None",
". 	c #009AFF",
"+ 	c #0094F6",
"@ 	c #004878",
"# 	c #009FFF",
"$ 	c #0099FE",
"% 	c #0099FD",
"& 	c #0098FC",
"* 	c #0098FD",
"= 	c #0092F2",
"- 	c #00538A",
"; 	c #0097FA",
"> 	c #0096F9",
", 	c #0094F4",
"' 	c #006CB3",
") 	c #004F84",
"! 	c #005C99",
"~ 	c #0062A3",
"{ 	c #0076C4",
"] 	c #009CFF",
"^ 	c #0095F6",
"/ 	c #008AE5",
"( 	c #0071BA",
"_ 	c #005A96",
": 	c #0085DD",
"< 	c #009BFF",
"[ 	c #009DFF",
"} 	c #004C7F",
"| 	c #00A1FF",
"1 	c #0067AB",
"2 	c #005892",
"3 	c #004E82",
"4 	c #006DB5",
"5 	c #005B98",
"6 	c #0086DE",
"7 	c #00A2FF",
"8 	c #009EFF",
"9 	c #005187",
"0 	c #006BB0",
"a 	c #0075C2",
"b 	c #006FB8",
"c 	c #006EB7",
"d 	c #002F4F",
"e 	c #00568F",
"f 	c #00426D",
"g 	c #00A4FF",
"h 	c #008DEA",
"i 	c #004673",
"j 	c #001523",
"k 	c #000D15",
"l 	c #000000",
"m 	c #000407",
"n 	c #002D4B",
"o 	c #0094F5",
"p 	c #003E66",
"q 	c #00080E",
"r 	c #0064A5",
"s 	c #00A6FF",
"t 	c #002842",
"u 	c #002C4A",
"v 	c #0097F9",
"w 	c #005A95",
"x 	c #00121F",
"y 	c #005C98",
"z 	c #00A3FF",
"A 	c #007FD3",
"B 	c #001A2C",
"C 	c #000509",
"D 	c #00253D",
"E 	c #008BE7",
"F 	c #00A5FF",
"G 	c #000305",
"H 	c #0079C8",
"I 	c #0067AA",
"J 	c #005D99",
"K 	c #00070B",
"L 	c #00263E",
"M 	c #0080D4",
"N 	c #0084DB",
"O 	c #001F35",
"P 	c #00548B",
"Q 	c #0097FB",
"R 	c #0095F7",
"S 	c #0081D7",
"T 	c #0069AD",
"U 	c #00395F",
"V 	c #0092F3",
"W 	c #0072BC",
"X 	c #001726",
"Y 	c #00060A",
"Z 	c #0089E4",
"` 	c #007ED1",
" .	c #002238",
"..	c #002A46",
"+.	c #0090EE",
"@.	c #008EEB",
"#.	c #003558",
"$.	c #004775",
"%.	c #0093F4",
"&.	c #005F9E",
"*.	c #0073BE",
"=.	c #009AFE",
"-.	c #0081D6",
";.	c #00243C",
">.	c #001524",
",.	c #0088E1",
"'.	c #0082D7",
").	c #0063A4",
"!.	c #004A7B",
"~.	c #004C7D",
"{.	c #006EB5",
"].	c #000406",
"^.	c #008DE9",
"/.	c #000508",
"(.	c #0077C5",
"_.	c #007CCD",
":.	c #004B7C",
"<.	c #001E32",
"[.	c #002841",
"}.	c #001E33",
"|.	c #006BB3",
"1.	c #006AAF",
"2.	c #000E17",
"3.	c #000D16",
"4.	c #006AB0",
"5.	c #004F83",
"6.	c #000B11",
"7.	c #003B62",
"8.	c #007FD2",
"9.	c #001F33",
"0.	c #006CB4",
"a.	c #00131F",
"b.	c #002136",
"c.	c #00101A",
"d.	c #005B96",
"e.	c #0091F1",
"f.	c #005E9C",
"g.	c #00A0FF",
"h.	c #006EB6",
"i.	c #00111D",
"j.	c #002239",
"k.	c #0072BD",
"l.	c #00101B",
"m.	c #004470",
"n.	c #0089E2",
"o.	c #001A2B",
"p.	c #004572",
"q.	c #00233A",
"r.	c #003050",
"s.	c #002137",
"t.	c #00121E",
"u.	c #003456",
"v.	c #0071BB",
"w.	c #008BE6",
"x.	c #002036",
"y.	c #0087E0",
"z.	c #00070D",
"A.	c #001522",
"B.	c #005085",
"C.	c #0082D6",
"D.	c #0089E3",
"E.	c #001D31",
"F.	c #0083D9",
"G.	c #003E67",
"H.	c #000F19",
"I.	c #00558C",
"J.	c #0081D5",
"K.	c #008FEE",
"L.	c #007BCB",
"M.	c #000B13",
"N.	c #003151",
"O.	c #00080D",
"P.	c #0064A6",
"Q.	c #003F6A",
"R.	c #001C2F",
"S.	c #002741",
"T.	c #001624",
"U.	c #0095F8",
"V.	c #001B2C",
"W.	c #0062A4",
"X.	c #006AB1",
"Y.	c #005389",
". . . . . . . . . . . . . . . . . + @ # . . $ . . . $ % & * $ . ",
". . . . . . . . . . . . . . . . $ = - # $ . . $ ; > , ' ) ! > . ",
". . . . . . . . . . . . . . . . % ~ { ] . $ ^ / ( _ ' : < [ . $ ",
". . . . . . . . . . . . . . . . & } | . ; : 1 2 : | [ < . $ . . ",
". . . . . . . . . . . . . . . . & 3 # ^ 4 5 6 7 < $ . . . . . . ",
". . . . . . . . . . . . $ < [ 8 [ 9 % 0 ! # ] $ . . . . . . . . ",
". . . . . . . . . . . $ [ , a b c d e f g . $ . . . . . . . . . ",
". . . . . . . . . . . < h i j k k l m n o < . . . . . . . . . . ",
". . . . . . . . . . $ 7 p l l l l l l q r | $ . . . . . . . . . ",
". . . . . . . . . $ . s t l l l l l l l u v < . . . . . . . . . ",
". . . . . . . . . . 8 w x l l l l l l l q y z $ . . . . . . . . ",
". . . . . . . . . [ A B l l l C l l l l l D E ] . . . . . . . . ",
". . . . . . . . $ F @ G l l l H I J } K l L M [ . . . . . . . . ",
". . . . . . . . [ N O l l l P % Q > R S } T < . . . . . . . . . ",
". . . . . . . $ z - C l l U V . . . . $ > Q . $ . . . . . . . . ",
". . . . . . $ # W X l l Y Z . . . . $ . . . $ . . . . . . . . . ",
". . . . . . [ `  .l l l ..+.. . . . . . . . . . . . . . . . . . ",
". . . . $ < @.#.l l l l $.%.. . . $ . . . . $ . . . . . . . . . ",
". . . $ . [ &.l l l l l *.$ . . . . < Q %.=.. $ . . . . . . . . ",
". . . . ] -.;.l l l l >.,.< $ $ . % '.).f M < . . . . . . . . . ",
". . $ < R !.l l l l l ~.%.. . [ %.{.].l l L ^.] . . . . . . . . ",
". $ . . )./.l l l l l (.# 8 ; _.:.Y l <.[.}.|.# . . . . . . . . ",
"$ . < 1.2.l l l l l 3.4.A *.5.X l 6.7.8.I 9.0.# . . . . . . . . ",
". ] 4.a.l l l l l l 2. .b.c.l l l d.e.[ b  .f.g.. . . . . . . . ",
"< h.i.l l l l l l l l l l l l j.P $ ] % k.l.m.z $ . . . . . . . ",
"n.o.l l l m l l l l l l l l C p.8 . $ < n.q.r.8 . . . . . . . . ",
"s.l l G t.K l l l l l l l u.v.'.. $ . < w.d x.y.] . . . . . . . ",
"l l l z.q.l l l l l l A.B.C.] ] $ . $ < D.t E.F.[ . . . . . . . ",
"l l l q G.l l l H.I.J.v.K.$ $ . . . . < L.M.N.. . . . . . . . . ",
"l l O.P.Z Q.R.S.0.$ < & $ . . $ $ . ] ; ~.<.6 ] . . . . . . . . ",
"l l T.| $ U.%.o & . . . . $ . . . & (.f V.W.# . $ . . . . . . . ",
"l /.X.[ . . . . . $ . . . . . . . . > c Y.# . $ . . . . . . . . "};
