/* XPM */
static const char * RebinningCutter_xpm[] = {
"32 32 2 1",
" 	c None",
".	c #009CFF",
"                                ",
"                                ",
"                                ",
"                                ",
"                                ",
"   ..                ..         ",
"   ..               ..          ",
"    ...             ..          ",
"     ..           ...           ",
"      ..         ...            ",
"       ..        ..             ",
"       ..       ..              ",
"        ..     ..               ",
"         ..    ..               ",
"         ..   ..                ",
"          .. ..                 ",
"           ....                 ",
"           ...                  ",
"            ..                  ",
"           ...                  ",
"  ......   . ..                 ",
"  ..  ..  .  ..                 ",
" ..    ....   . .......         ",
" ..     ..    .........         ",
"...    ..     ...     ..        ",
"...   ...      ..     ..        ",
" ... ...       ..     ..        ",
"  ......       ...     .        ",
"                ........        ",
"                   .....        ",
"                                ",
"                                "};
